<svg width="18" height="19" viewBox="0 0 18 19" fill="none" xmlns="http://www.w3.org/2000/svg">
<path d="M15.75 4.985C13.2525 4.7375 10.74 4.61 8.235 4.61C6.75 4.61 5.265 4.685 3.78 4.835L2.25 4.985" stroke="#FF302F" stroke-width="1.5" stroke-linecap="round" stroke-linejoin="round"/>
<path d="M6.375 4.2275L6.54 3.245C6.66 2.5325 6.75 2 8.0175 2H9.9825C11.25 2 11.3475 2.5625 11.46 3.2525L11.625 4.2275" stroke="#FF302F" stroke-width="1.5" stroke-linecap="round" stroke-linejoin="round"/>
<path d="M14.1375 7.355L13.65 14.9075C13.5675 16.085 13.5 17 11.4075 17H6.59249C4.49999 17 4.43249 16.085 4.34999 14.9075L3.86249 7.355" stroke="#FF302F" stroke-width="1.5" stroke-linecap="round" stroke-linejoin="round"/>
<path d="M7.7475 12.875H10.245" stroke="#FF302F" stroke-width="1.5" stroke-linecap="round" stroke-linejoin="round"/>
<path d="M7.125 9.875H10.875" stroke="#FF302F" stroke-width="1.5" stroke-linecap="round" stroke-linejoin="round"/>
</svg>
