<svg width="18" height="19" viewBox="0 0 18 19" fill="none" xmlns="http://www.w3.org/2000/svg">
<path d="M6.98251 11.525L8.10751 12.65L11.1075 9.65" stroke="#00E676" stroke-width="1.5" stroke-linecap="round" stroke-linejoin="round"/>
<path d="M7.5 5H10.5C12 5 12 4.25 12 3.5C12 2 11.25 2 10.5 2H7.5C6.75 2 6 2 6 3.5C6 5 6.75 5 7.5 5Z" stroke="#00E676" stroke-width="1.5" stroke-miterlimit="10" stroke-linecap="round" stroke-linejoin="round"/>
<path d="M12 3.515C14.4975 3.65 15.75 4.5725 15.75 8V12.5C15.75 15.5 15 17 11.25 17H6.75C3 17 2.25 15.5 2.25 12.5V8C2.25 4.58 3.5025 3.65 6 3.515" stroke="#00E676" stroke-width="1.5" stroke-miterlimit="10" stroke-linecap="round" stroke-linejoin="round"/>
</svg>
